<svg width="20" height="20" viewBox="0 0 20 20" fill="none" xmlns="http://www.w3.org/2000/svg">
<path d="M17.5 4.375L10 11.25L2.5 4.375" stroke="url(#paint0_linear_3566_2057)" stroke-linecap="round" stroke-linejoin="round"/>
<path d="M2.5 4.375H17.5V15C17.5 15.1658 17.4342 15.3247 17.3169 15.4419C17.1997 15.5592 17.0408 15.625 16.875 15.625H3.125C2.95924 15.625 2.80027 15.5592 2.68306 15.4419C2.56585 15.3247 2.5 15.1658 2.5 15V4.375Z" stroke="url(#paint1_linear_3566_2057)" stroke-linecap="round" stroke-linejoin="round"/>
<path d="M8.63895 10L2.69531 15.4484" stroke="url(#paint2_linear_3566_2057)" stroke-linecap="round" stroke-linejoin="round"/>
<path d="M17.307 15.4484L11.3633 10" stroke="url(#paint3_linear_3566_2057)" stroke-linecap="round" stroke-linejoin="round"/>
<defs>
<linearGradient id="paint0_linear_3566_2057" x1="7.80831" y1="-0.0241838" x2="19.8552" y2="2.65194" gradientUnits="userSpaceOnUse">
<stop stop-color="#69E6EC"/>
<stop offset="1" stop-color="#BC69FA"/>
</linearGradient>
<linearGradient id="paint1_linear_3566_2057" x1="7.80831" y1="-2.82366" x2="20.2209" y2="-1.13861" gradientUnits="userSpaceOnUse">
<stop stop-color="#69E6EC"/>
<stop offset="1" stop-color="#BC69FA"/>
</linearGradient>
<linearGradient id="paint2_linear_3566_2057" x1="4.79869" y1="6.51369" x2="9.7467" y2="7.06327" gradientUnits="userSpaceOnUse">
<stop stop-color="#69E6EC"/>
<stop offset="1" stop-color="#BC69FA"/>
</linearGradient>
<linearGradient id="paint3_linear_3566_2057" x1="13.4667" y1="6.51367" x2="18.4148" y2="7.06326" gradientUnits="userSpaceOnUse">
<stop stop-color="#69E6EC"/>
<stop offset="1" stop-color="#BC69FA"/>
</linearGradient>
</defs>
</svg>
